<svg xmlns="http://www.w3.org/2000/svg" width="180" height="180" viewBox="0 0 180 180" role="img" aria-labelledby="t d"><title id="t">Seal: driftmark conforms to tannergolden/standards</title><desc id="d">The seal the certificate is stamped with, on its own, for the foot of the page.</desc><!--banner-kit v1 elements v1 seal wide dark--><defs><path id="m47" d="M21 14 226 690Q229 700 239 700H331Q337 700 340 696Q343 692 341 686L136 10Q133 0 123 0H31Q25 0 22 4Q19 8 21 14Z"/><path id="m48" d="M38 183V517Q38 604 89 658Q140 711 224 711Q309 711 360 658Q412 604 412 517V183Q412 96 360 42Q309 -11 224 -11Q140 -11 89 42Q38 96 38 183ZM296 176V524Q296 563 276 586Q257 610 224 610Q192 610 173 586Q154 563 154 524V176Q154 137 173 114Q192 90 224 90Q257 90 276 114Q296 137 296 176Z"/><path id="m49" d="M122 700H218Q223 700 226 696Q230 693 230 688V12Q230 7 226 4Q223 0 218 0H126Q121 0 118 4Q114 7 114 12V576Q114 578 112 580Q111 582 109 581L27 565H24Q13 565 13 576L10 643Q10 653 18 657L107 697Q114 700 122 700Z"/><path id="m50" d="M173 100H392Q397 100 400 96Q404 93 404 88V12Q404 7 400 4Q397 0 392 0H43Q38 0 34 4Q31 7 31 12V92Q31 101 36 107L75 160Q114 212 152 266Q189 320 215 363Q273 459 273 522Q273 562 256 585Q238 608 209 608Q180 608 163 586Q146 563 147 526V487Q147 482 144 478Q140 475 135 475H41Q36 475 32 478Q29 482 29 487V530Q33 610 84 659Q134 708 214 708Q293 708 342 656Q390 605 390 521Q390 471 373 422Q356 373 319 317Q294 277 260 229Q225 181 214 166Q184 126 170 106Q168 104 169 102Q170 100 173 100Z"/><path id="m54" d="M401 216Q401 193 399 151Q394 75 346 34Q299 -8 221 -8Q147 -8 101 30Q55 69 46 144Q40 171 40 207L39 532Q39 613 88 660Q138 708 219 708Q295 708 343 660Q391 612 391 532V507Q391 502 388 498Q384 495 379 495H287Q282 495 278 498Q275 502 275 507V526Q275 560 258 582Q242 605 219 605Q191 605 174 583Q156 561 156 526V423Q156 420 158 419Q160 418 162 420Q191 447 234 447Q303 447 346 403Q389 359 396 286Q401 253 401 216ZM284 224Q284 250 279 295Q267 353 220 353Q196 353 180 338Q165 322 160 292Q156 257 156 224Q156 195 159 157Q164 125 180 108Q195 91 220 91Q245 91 260 109Q276 127 281 160Q284 196 284 224Z"/><path id="m65" d="M325 11 306 116Q306 121 300 121H154Q148 121 148 116L129 11Q128 0 116 0H25Q11 0 14 13L162 689Q164 700 175 700H281Q292 700 294 689L442 13V9Q442 0 431 0H338Q326 0 325 11ZM171 212H282Q288 212 287 217L229 533Q228 536 226 536Q224 536 223 533L166 217Q165 212 171 212Z"/><path id="m67" d="M42 180V521Q42 607 94 658Q145 708 230 708Q316 708 368 658Q420 607 420 521V509Q420 504 416 500Q413 496 408 496L315 492Q303 492 303 504V529Q303 564 283 586Q263 608 230 608Q198 608 178 586Q158 564 158 529V171Q158 136 178 114Q198 92 230 92Q263 92 283 114Q303 136 303 171V196Q303 201 306 204Q310 208 315 208L408 204Q413 204 416 200Q420 197 420 192V180Q420 95 368 44Q316 -8 230 -8Q145 -8 94 44Q42 95 42 180Z"/><path id="m68" d="M54 12V688Q54 693 58 696Q61 700 66 700H237Q323 700 374 648Q426 596 426 509V191Q426 104 374 52Q323 0 237 0H66Q61 0 58 4Q54 7 54 12ZM175 100 235 101Q268 101 288 128Q309 154 310 198V502Q310 547 290 574Q269 600 234 600H175Q170 600 170 595V105Q170 100 175 100Z"/><path id="m69" d="M391 600H175Q170 600 170 595V406Q170 401 175 401H303Q308 401 312 398Q315 394 315 389V312Q315 307 312 304Q308 300 303 300H175Q170 300 170 295V105Q170 100 175 100H391Q396 100 400 96Q403 93 403 88V12Q403 7 400 4Q396 0 391 0H66Q61 0 58 4Q54 7 54 12V688Q54 693 58 696Q61 700 66 700H391Q396 700 400 696Q403 693 403 688V612Q403 607 400 604Q396 600 391 600Z"/><path id="m70" d="M390 600H175Q170 600 170 595V406Q170 401 175 401H302Q307 401 310 398Q314 394 314 389V312Q314 307 310 304Q307 300 302 300H175Q170 300 170 295V12Q170 7 166 4Q163 0 158 0H66Q61 0 58 4Q54 7 54 12V688Q54 693 58 696Q61 700 66 700H390Q395 700 398 696Q402 693 402 688V612Q402 607 398 604Q395 600 390 600Z"/><path id="m71" d="M42 173V527Q42 609 94 658Q145 708 230 708Q315 708 368 658Q420 609 420 526V487Q420 482 416 478Q413 475 408 475H316Q311 475 308 478Q304 482 304 487V528Q304 564 284 586Q263 608 230 608Q197 608 177 586Q157 564 157 528V172Q157 136 177 114Q197 92 230 92Q263 92 284 114Q304 136 304 172V268Q304 273 299 273H238Q233 273 230 276Q226 280 226 285V358Q226 363 230 366Q233 370 238 370H408Q413 370 416 366Q420 363 420 358V173Q420 91 368 42Q315 -8 230 -8Q145 -8 94 42Q42 91 42 173Z"/><path id="m76" d="M54 12V688Q54 693 58 696Q61 700 66 700H158Q163 700 166 696Q170 693 170 688V105Q170 100 175 100H391Q396 100 400 96Q403 93 403 88V12Q403 7 400 4Q396 0 391 0H66Q61 0 58 4Q54 7 54 12Z"/><path id="m77" d="M383 700H475Q480 700 484 696Q487 693 487 688V12Q487 7 484 4Q480 0 475 0H383Q378 0 374 4Q371 7 371 12V484Q371 488 369 488Q367 488 365 485L278 327Q273 319 269 319Q265 319 260 327L173 485Q171 488 169 488Q167 488 167 484V12Q167 7 164 4Q160 0 155 0H63Q58 0 54 4Q51 7 51 12V688Q51 693 54 696Q58 700 63 700H155Q165 700 170 692L267 521Q270 517 273 521L368 692Q373 700 383 700Z"/><path id="m78" d="M350 700H441Q446 700 450 696Q453 693 453 688V12Q453 7 450 4Q446 0 441 0H336Q326 0 323 10L174 434Q173 437 170 436Q168 436 168 433L169 12Q169 7 166 4Q162 0 157 0H66Q61 0 58 4Q54 7 54 12V688Q54 693 58 696Q61 700 66 700H169Q179 700 182 690L332 269Q333 266 336 266Q338 267 338 270V688Q338 693 342 696Q345 700 350 700Z"/><path id="m79" d="M42 182V518Q42 604 94 656Q147 708 233 708Q319 708 372 656Q425 604 425 518V182Q425 96 372 44Q319 -8 233 -8Q147 -8 94 44Q42 96 42 182ZM309 177V523Q309 561 288 584Q267 608 233 608Q199 608 178 584Q158 561 158 523V177Q158 139 178 116Q199 92 233 92Q267 92 288 116Q309 139 309 177Z"/><path id="m82" d="M318 10 233 297Q231 301 228 301H175Q170 301 170 296V12Q170 7 166 4Q163 0 158 0H66Q61 0 58 4Q54 7 54 12V688Q54 693 58 696Q61 700 66 700H254Q307 700 348 674Q388 649 410 602Q433 556 433 496Q433 434 409 389Q385 344 342 321Q338 320 339 315L437 14Q438 12 438 9Q438 0 427 0H331Q321 0 318 10ZM170 595V396Q170 391 175 391H236Q272 391 294 419Q317 447 317 495Q317 543 294 572Q272 600 236 600H175Q170 600 170 595Z"/><path id="m83" d="M34 173V199Q34 204 38 208Q41 211 46 211H137Q142 211 146 208Q149 204 149 199V179Q149 140 168 116Q188 92 219 92Q250 92 270 114Q290 137 290 174Q290 200 279 219Q268 238 248 255Q228 272 184 304Q134 340 104 368Q73 396 52 436Q32 475 32 527Q32 610 82 659Q132 708 214 708Q297 708 348 656Q399 605 399 520V496Q399 491 396 488Q392 484 387 484H297Q292 484 288 488Q285 491 285 496V522Q285 561 266 584Q246 608 214 608Q184 608 165 586Q146 565 146 527Q146 491 166 466Q187 441 247 397Q308 352 339 324Q370 295 387 261Q404 227 404 180Q404 95 353 44Q302 -8 219 -8Q136 -8 85 42Q34 92 34 173Z"/><path id="m84" d="M425 688V612Q425 607 422 604Q418 600 413 600H286Q281 600 281 595V12Q281 7 278 4Q274 0 269 0H177Q172 0 168 4Q165 7 165 12V595Q165 600 160 600H40Q35 600 32 604Q28 607 28 612V688Q28 693 32 696Q35 700 40 700H413Q418 700 422 696Q425 693 425 688Z"/><path id="m86" d="M171 11 28 687 27 691Q27 700 38 700H139Q151 700 152 689L235 208Q236 205 238 205Q240 205 241 208L322 689Q323 700 335 700H433Q446 700 443 687L299 11Q297 0 286 0H184Q173 0 171 11Z"/><path id="m183" d="M37 286Q37 317 57 337Q77 357 108 357Q139 357 158 337Q178 317 178 286Q178 255 158 235Q138 215 108 215Q77 215 57 235Q37 255 37 286Z"/><path id="j49" d="M90 0V82H288V655L90 507V607L255 730H378V82H540V0Z"/><path id="j50" d="M92 0V92L315 329Q372 390 398 438Q424 485 424 529Q424 590 390 625Q357 660 299 660Q235 660 198 624Q162 588 162 525H72Q74 591 102 640Q131 688 182 714Q232 740 299 740Q365 740 414 714Q462 689 488 642Q514 595 514 530Q514 468 481 407Q448 346 373 268L193 82H526V0Z"/><path id="j52" d="M410 0V160H80V301L369 730H467L170 282V242H410V420H500V0Z"/><path id="j57" d="M187 0 394 332 390 335Q371 307 338 292Q305 277 264 277Q205 277 160 305Q116 333 92 384Q68 436 68 505Q68 576 97 628Q126 681 178 710Q230 740 299 740Q369 740 422 710Q474 681 503 628Q532 576 532 505Q532 450 516 397Q501 344 470 295L287 0ZM300 350Q364 350 403 392Q442 435 442 505Q442 575 403 618Q364 660 300 660Q236 660 197 618Q158 575 158 505Q158 435 197 392Q236 350 300 350Z"/><path id="j65" d="M50 0 240 730H361L550 0H459L411 194H190L142 0ZM208 270H392L336 495Q320 559 311 602Q302 645 300 658Q298 645 289 602Q280 559 264 496Z"/><path id="j67" d="M304 -10Q238 -10 190 15Q141 40 114 88Q88 135 88 200V530Q88 596 114 643Q141 690 190 715Q238 740 304 740Q370 740 418 714Q466 689 492 642Q518 595 518 530H428Q428 592 396 626Q363 659 304 659Q245 659 212 626Q178 593 178 531V200Q178 138 212 104Q245 71 304 71Q363 71 396 104Q428 138 428 200H518Q518 136 492 88Q466 41 418 16Q370 -10 304 -10Z"/><path id="j70" d="M95 0V731H525V649H183V406H499V324H185V0Z"/><path id="n65" d="M325 11 309 107Q309 112 303 112H176Q170 112 170 107L154 11Q153 0 141 0H24Q11 0 14 13L161 689Q163 700 174 700H309Q320 700 322 689L468 13L469 9Q469 0 458 0H338Q326 0 325 11ZM194 221H284Q289 221 288 226L241 499Q240 502 238 502Q236 502 235 499L190 226Q190 221 194 221Z"/><path id="n68" d="M44 12V688Q44 693 48 696Q51 700 56 700H237Q328 700 383 647Q438 594 438 506V194Q438 106 383 53Q328 0 237 0H56Q51 0 48 4Q44 7 44 12ZM190 121 235 122Q262 123 279 145Q296 167 297 203V497Q297 535 280 557Q263 579 234 579H190Q185 579 185 574V126Q185 121 190 121Z"/><path id="n70" d="M398 579H190Q185 579 185 574V416Q185 411 190 411H309Q314 411 318 408Q321 404 321 399V302Q321 297 318 294Q314 290 309 290H190Q185 290 185 285V12Q185 7 182 4Q178 0 173 0H56Q51 0 48 4Q44 7 44 12V688Q44 693 48 696Q51 700 56 700H398Q403 700 406 696Q410 693 410 688V591Q410 586 406 582Q403 579 398 579Z"/><path id="n73" d="M44 12V688Q44 693 48 696Q51 700 56 700H173Q178 700 182 696Q185 693 185 688V12Q185 7 182 4Q178 0 173 0H56Q51 0 48 4Q44 7 44 12Z"/><path id="n75" d="M44 12V688Q44 693 48 696Q51 700 56 700H173Q178 700 182 696Q185 693 185 688V436Q185 432 188 432Q190 431 191 435L320 691Q325 700 334 700H458Q465 700 468 696Q470 693 467 686L319 398Q318 394 318 392L475 14Q476 12 476 8Q476 0 466 0H341Q330 0 327 9L223 271Q222 274 220 274Q218 273 216 271L187 219Q185 215 185 213V12Q185 7 182 4Q178 0 173 0H56Q51 0 48 4Q44 7 44 12Z"/><path id="n77" d="M379 700H495Q500 700 504 696Q507 693 507 688V12Q507 7 504 4Q500 0 495 0H378Q373 0 370 4Q366 7 366 12V461Q366 465 364 465Q362 465 360 462L282 324Q277 316 274 316Q271 316 266 324L188 462Q186 465 184 465Q182 465 182 461V12Q182 7 178 4Q175 0 170 0H53Q48 0 44 4Q41 7 41 12V688Q41 693 44 696Q48 700 53 700H168Q178 700 183 692L272 533Q275 529 278 533L364 692Q368 700 379 700Z"/><path id="n82" d="M306 10 229 286Q227 290 224 290H190Q185 290 185 285V12Q185 7 182 4Q178 0 173 0H56Q51 0 48 4Q44 7 44 12V688Q44 693 48 696Q51 700 56 700H258Q313 700 356 674Q399 647 422 599Q446 551 446 489Q446 430 424 385Q401 340 361 315Q359 314 358 312Q357 311 358 309L450 14L451 10Q451 0 440 0H320Q309 0 306 10ZM185 574V403Q185 398 190 398H235Q266 398 286 422Q305 447 305 488Q305 530 286 554Q266 579 235 579H190Q185 579 185 574Z"/><path id="n84" d="M444 688V591Q444 586 440 582Q437 579 432 579H307Q302 579 302 574V12Q302 7 298 4Q295 0 290 0H173Q168 0 164 4Q161 7 161 12V574Q161 579 156 579H36Q31 579 28 582Q24 586 24 591V688Q24 693 28 696Q31 700 36 700H432Q437 700 440 696Q444 693 444 688Z"/></defs><g transform="translate(90 90) scale(1) translate(-90 -90)"><circle cx="90.0" cy="90.0" r="82" fill="#253D7E" stroke="#FFFFFF" stroke-width="2"/><circle cx="90.0" cy="90.0" r="77" fill="none" stroke="#FFFFFF" stroke-opacity="0.8"/><circle cx="90.0" cy="90.0" r="55" fill="none" stroke="#FFFFFF" stroke-width="1.4"/><g fill="#FFFFFF"><use href="#m67" transform="translate(90 90) rotate(-73.72) translate(-1.97 -62) scale(0.0086 -0.0086)"/><use href="#m79" transform="translate(90 90) rotate(-69.12) translate(-2.01 -62) scale(0.0086 -0.0086)"/><use href="#m78" transform="translate(90 90) rotate(-64.33) translate(-2.18 -62) scale(0.0086 -0.0086)"/><use href="#m70" transform="translate(90 90) rotate(-59.74) translate(-1.78 -62) scale(0.0086 -0.0086)"/><use href="#m79" transform="translate(90 90) rotate(-55.31) translate(-2.01 -62) scale(0.0086 -0.0086)"/><use href="#m82" transform="translate(90 90) rotate(-50.7) translate(-1.98 -62) scale(0.0086 -0.0086)"/><use href="#m77" transform="translate(90 90) rotate(-45.8) translate(-2.31 -62) scale(0.0086 -0.0086)"/><use href="#m83" transform="translate(90 90) rotate(-41.02) translate(-1.87 -62) scale(0.0086 -0.0086)"/><use href="#m84" transform="translate(90 90) rotate(-34.06) translate(-1.94 -62) scale(0.0086 -0.0086)"/><use href="#m79" transform="translate(90 90) rotate(-29.48) translate(-2.01 -62) scale(0.0086 -0.0086)"/><use href="#m84" transform="translate(90 90) rotate(-22.39) translate(-1.94 -62) scale(0.0086 -0.0086)"/><use href="#m65" transform="translate(90 90) rotate(-17.86) translate(-1.96 -62) scale(0.0086 -0.0086)"/><use href="#m78" transform="translate(90 90) rotate(-13.11) translate(-2.18 -62) scale(0.0086 -0.0086)"/><use href="#m78" transform="translate(90 90) rotate(-8.16) translate(-2.18 -62) scale(0.0086 -0.0086)"/><use href="#m69" transform="translate(90 90) rotate(-3.49) translate(-1.87 -62) scale(0.0086 -0.0086)"/><use href="#m82" transform="translate(90 90) rotate(0.99) translate(-1.98 -62) scale(0.0086 -0.0086)"/><use href="#m71" transform="translate(90 90) rotate(5.59) translate(-1.99 -62) scale(0.0086 -0.0086)"/><use href="#m79" transform="translate(90 90) rotate(10.2) translate(-2.01 -62) scale(0.0086 -0.0086)"/><use href="#m76" transform="translate(90 90) rotate(14.63) translate(-1.78 -62) scale(0.0086 -0.0086)"/><use href="#m68" transform="translate(90 90) rotate(19.08) translate(-2.03 -62) scale(0.0086 -0.0086)"/><use href="#m69" transform="translate(90 90) rotate(23.61) translate(-1.87 -62) scale(0.0086 -0.0086)"/><use href="#m78" transform="translate(90 90) rotate(28.28) translate(-2.18 -62) scale(0.0086 -0.0086)"/><use href="#m47" transform="translate(90 90) rotate(32.75) translate(-1.66 -62) scale(0.0086 -0.0086)"/><use href="#m83" transform="translate(90 90) rotate(36.93) translate(-1.87 -62) scale(0.0086 -0.0086)"/><use href="#m84" transform="translate(90 90) rotate(41.38) translate(-1.94 -62) scale(0.0086 -0.0086)"/><use href="#m65" transform="translate(90 90) rotate(45.91) translate(-1.96 -62) scale(0.0086 -0.0086)"/><use href="#m78" transform="translate(90 90) rotate(50.66) translate(-2.18 -62) scale(0.0086 -0.0086)"/><use href="#m68" transform="translate(90 90) rotate(55.47) translate(-2.03 -62) scale(0.0086 -0.0086)"/><use href="#m65" transform="translate(90 90) rotate(60.09) translate(-1.96 -62) scale(0.0086 -0.0086)"/><use href="#m82" transform="translate(90 90) rotate(64.65) translate(-1.98 -62) scale(0.0086 -0.0086)"/><use href="#m68" transform="translate(90 90) rotate(69.28) translate(-2.03 -62) scale(0.0086 -0.0086)"/><use href="#m83" transform="translate(90 90) rotate(73.81) translate(-1.87 -62) scale(0.0086 -0.0086)"/></g><g fill="#FFFFFF"><use href="#m86" transform="translate(90 90) rotate(19.08) translate(-2.03 66.02) scale(0.0086 -0.0086)"/><use href="#m49" transform="translate(90 90) rotate(14.68) translate(-1.18 66.02) scale(0.0086 -0.0086)"/><use href="#m183" transform="translate(90 90) rotate(5.38) translate(-0.92 66.02) scale(0.0086 -0.0086)"/><use href="#m50" transform="translate(90 90) rotate(-4.55) translate(-1.83 66.02) scale(0.0086 -0.0086)"/><use href="#m48" transform="translate(90 90) rotate(-9.48) translate(-1.94 66.02) scale(0.0086 -0.0086)"/><use href="#m50" transform="translate(90 90) rotate(-14.41) translate(-1.83 66.02) scale(0.0086 -0.0086)"/><use href="#m54" transform="translate(90 90) rotate(-19.25) translate(-1.84 66.02) scale(0.0086 -0.0086)"/></g><circle cx="24.0" cy="90.0" r="2.2" fill="#FFFFFF"/><circle cx="156.0" cy="90.0" r="2.2" fill="#FFFFFF"/><g transform="translate(73 54) scale(1.4167)" fill="none" stroke="#FFFFFF" stroke-width="1.8" stroke-linecap="round" stroke-linejoin="round"><circle cx="12" cy="12" r="9"/><path d="M8 12l3 3 5-6"/></g><g transform="translate(54 104) scale(0.015 -0.015)" fill="#FFFFFF"><use href="#n68" x="0"/><use href="#n82" x="569"/><use href="#n73" x="1134"/><use href="#n70" x="1457"/><use href="#n84" x="1971"/><use href="#n77" x="2533"/><use href="#n65" x="3174"/><use href="#n82" x="3749"/><use href="#n75" x="4314"/></g><g transform="translate(72.2 119) scale(0.0085 -0.0085)" fill="#FFFFFF" fill-opacity="0.7"><use href="#j52" x="0"/><use href="#j70" x="600"/><use href="#j50" x="1200"/><use href="#j67" x="1800"/><use href="#j57" x="2400"/><use href="#j65" x="3000"/><use href="#j49" x="3600"/></g></g></svg>
